<svg width="50" height="50" viewBox="0 0 1342 1342" fill="none" xmlns="http://www.w3.org/2000/svg">
<rect y="0.00012207" width="1342" height="1342" rx="200" fill="black"/>
<path fill-rule="evenodd" clip-rule="evenodd" d="M312.315 807.497C333.951 821.515 362.844 815.322 376.848 793.666L632.713 397.999C650.443 370.58 690.557 370.58 708.287 397.999L964.152 793.666C978.156 815.322 1007.05 821.515 1028.69 807.497C1050.32 793.48 1056.51 764.561 1042.5 742.905L740.721 276.231C707.758 225.256 633.242 225.256 600.279 276.231L298.496 742.905C284.491 764.561 290.678 793.48 312.315 807.497Z" fill="#FF2921"/>
<path fill-rule="evenodd" clip-rule="evenodd" d="M312.315 1095.51C333.951 1109.5 362.844 1103.32 376.848 1081.7L632.732 686.692C650.468 659.313 690.532 659.313 708.268 686.692L964.152 1081.7C978.156 1103.32 1007.05 1109.5 1028.69 1095.51C1050.32 1081.52 1056.51 1052.65 1042.5 1031.03L740.721 565.165C707.758 514.278 633.242 514.279 600.279 565.165L298.496 1031.03C284.491 1052.65 290.678 1081.52 312.315 1095.51Z" fill="#FF2921"/>
</svg>
