<svg width="512" height="512" viewBox="0 0 512 512" fill="none" xmlns="http://www.w3.org/2000/svg">
<rect width="512" height="512" rx="120" fill="black"/>
<path d="M336.222 210H349.529C350.693 210 351.805 210.512 352.573 211.396C380.05 242.988 409.032 266.457 438.813 282.13C440.155 282.836 441 284.216 441 285.718V298C441 300.209 439.209 302 437 302H74C71.7909 302 70 300.209 70 298V279.108C70 276.899 71.7909 275.108 74 275.108H356.648C361.862 275.108 364.602 268.92 361.529 264.878C352.073 252.439 342.277 235.916 332.634 215.614C331.395 213.006 333.308 210 336.222 210Z" fill="#9F0712" stroke="#FF0000" stroke-width="2"/>
</svg>
